# xmcd
#
# Track frame offsets:
#  183
#  15535
#  29053
#  47983
#  71365
#  84060
#  104223
#  117575
#  140320
#  159893
#  174628
#  202108
#
# Disc length: 2809 seconds
#
# Revision: 0
# Processed by: cddbd v1.5.1PL2 Copyright (c) Steve Scherf et al.
# Submitted via: Collectorz.com_Music_Collector 6.11
#
DISCID=a50af70c
DTITLE=Skip James - Today!
DYEAR=1992
DGENRE=Blues
TTITLE0=Hard Times Killing Floor Blues
TTITLE1=Crow Jane
TTITLE2=Washington D.C Hospital Center Blues
TTITLE3=Special Rider Blues
TTITLE4=Drunken Spree
TTITLE5=Cherryball
TTITLE6=How Long, How Long
TTITLE7=All Night Long
TTITLE8=Cypress Grove Blues
TTITLE9=Look Down The Road
TTITLE10=My Gal
TTITLE11=I'm So Glad
EXTD=
EXTT0=
EXTT1=
EXTT2=
EXTT3=
EXTT4=
EXTT5=
EXTT6=
EXTT7=
EXTT8=
EXTT9=
EXTT10=
EXTT11=
PLAYORDER=
